<svg xmlns="http://www.w3.org/2000/svg" viewBox="293.12 223.5 475.23 520.23">
    <path d="M533 227c2.773 1.785 2.773 1.785 5.375 4.063l2.844 2.46L544 236l2.531 2.164c4.276 3.691 7.946 7.432 11.469 11.836l2.563 2.563c2.363 2.363 4.467 4.737 6.437 7.437v2l3 1c6.945 7.45 11.635 17.109 16.188 26.125l1.009 1.99c3.157 6.355 5.843 12.644 6.928 19.697l.473 3.07c.516 4.005.874 8.01 1.156 12.036.027 2.069.027 2.069 1.246 3.082.099 1.81.13 3.625.125 5.438l.008 2.996C597 340 597 340 596 342c3.676-1.696 6.885-3.591 10.188-5.938 9.636-6.548 21.438-8.904 32.734-11.005 3.323-.411 3.323-.411 6.078-2.057 2.655-.101 5.283-.14 7.938-.133l2.41-.003c1.684 0 3.369.001 5.053.006 2.588.005 5.175 0 7.763-.007 1.633 0 3.266.002 4.899.004l2.36-.006c5.462.024 5.462.024 6.577 1.139 1.991.332 3.984.657 5.98.95 7.834 1.154 14.834 2.608 22.02 6.05l4.25 1.813c17.188 7.734 17.188 7.734 23.75 12.187v2l1.672.254c3.082.988 5.067 2.653 7.578 4.683l2.703 2.153L752 356v2l4 2v2h2c2.957 3.525 3.458 6.698 3.285 11.238-1.066 10.322-3.811 20.18-7.047 29.996a205.54 205.54 0 0 0-2.133 6.844C748.231 423.03 741.235 435.327 733 446l-2.035 2.648c-3.438 4.383-6.921 8.51-10.965 12.352l-2.012 2.074-2.176 2.238-2.042 2.114C712 469 712 469 710 469v2a98.776 98.776 0 0 1-6 4l-3.219 2.035-3.281 2.027-3.281 2.036c-3.016 1.782-6.066 3.378-9.219 4.902-.225 2.078-.225 2.078 1.313 3.438L688 491c1.688 1.563 1.688 1.563 3 3v2l1.688.625c5.933 3.528 8.776 9.772 11.886 15.688 1.2 2.261 2.469 4.44 3.801 6.625C710 522 710 522 710 526h2c.982 3.395 1.96 6.791 2.938 10.188l.841 2.908.81 2.822.747 2.587c1.447 5.437 1.837 10.541 1.867 16.163l.017 2.53c.01 1.764.016 3.528.02 5.292.01 2.671.04 5.341.072 8.012.107 16.873.107 16.873-3.312 24.498l-1.277 3.047c-2.492 2.825-4.6 2.824-8.285 3.203-4.37.357-4.37.357-8.438 1.75-2.966.1-5.909.14-8.875.133l-2.667.003c-1.863 0-3.726-.001-5.589-.006-2.857-.005-5.715 0-8.572.007-1.807 0-3.615-.002-5.422-.004l-2.601.006c-6.044-.024-6.044-.024-8.274-1.139-2.687-.32-5.37-.607-8.063-.875-6.353-.699-11.991-1.715-17.937-4.125l-2.863-.988c-8.085-2.873-15.318-6.721-22.703-11.024-2.455-1.421-4.876-2.77-7.434-3.988v-2l-2.188-.75c-3.088-1.373-5.322-2.974-7.812-5.25v-2l-1.75-.75c-2.551-1.417-4.23-3.162-6.25-5.25l.176 2.133c.617 13.506-4.292 24.824-13.176 34.867-10.167 10.214-22.84 19.224-37.75 19.563-10.727-.59-22.188-3.753-30.133-11.368a69.765 69.765 0 0 1-2.8-3.484c-1.336-1.813-1.336-1.813-3.227-3.613-8.275-8.306-14.044-18.47-14.465-30.41.416-4.092 1.246-7.737 2.375-11.688l-1.727 2.234c-6.077 7.394-13.395 12.881-21.714 17.495-3.117 1.838-4.417 2.824-5.528 6.33-.082 7.749 5.513 14.391 10.692 19.71l1.652 1.606L466 617v2l1.688.688c2.96 1.68 4.924 3.886 7.312 6.312 7.766 7.43 15.872 14.192 24.385 20.74 2.348 1.832 4.632 3.738 6.928 5.635 4.886 3.933 10.097 6.83 15.687 9.625v2l1.777.344c2.418.714 3.778 1.647 5.785 3.156 4.726 3.27 9.734 5.609 14.938 8 5.897 2.712 11.485 5.406 16.71 9.309 2.154 1.434 4.37 2.297 6.79 3.191v2l1.938.313c2.51.563 4.82 1.239 7.25 2.062l2.255.76c1.612.546 3.221 1.1 4.826 1.667 6.366 2.111 12.112 2.657 18.793 2.573l2.815.035c7.915-.033 14.598-1.82 21.56-5.597C631 690 631 690 633 690l1-3h2l.75-1.625C638 683 638 683 640.063 679.937c4.044-6.132 3.524-12.812 2.937-19.937-.843-2.763-1.888-5.258-3.102-7.875-1.193-2.824-1.35-5.106-.898-8.125 2-2 2-2 4.625-2.438 4.808.624 7.872 2.056 11.375 5.438 6.695 10.17 9.399 18.826 8 31-1.596 4.272-3.613 8.12-6 12h-2l-.813 2.438L653 695l-3 1c-1.209 2-1.209 2-2 4h-2l-1 3c-2.063.688-2.063.688-4 1v2c-10.842 6.493-20.13 11.45-33 12l-2.041.099c-19.098.818-33.832-3.932-50.959-12.099v-2l-1.96-.18c-4.389-1.184-7.845-3.53-11.665-5.945l-2.427-1.508c-5.223-3.253-10.406-6.567-15.58-9.894-2.233-1.389-4.492-2.663-6.806-3.91-4.791-2.6-9.26-5.633-13.765-8.696-2.764-1.895-2.764-1.895-5.656-3.484L495 669v-2l-5-2v-2l-5-2v-2l-2-.563c-6.325-3.03-11.094-8.53-16-13.437l-3-2v-2l-1.688-.75c-5.319-2.875-8.932-6.966-12.761-11.543-1.458-1.81-1.458-1.81-3.551-2.707 1.124 3.89 2.035 6.272 5 9l1.277 2.203c2.005 3.255 4.36 6.098 6.848 8.985l1.479 1.72c.993 1.155 1.99 2.307 2.987 3.458a399.522 399.522 0 0 1 3.745 4.423c4.554 5.31 9.318 9.459 15.086 13.422 4.644 3.223 8.589 6.8 12.578 10.789 3.747 3.358 3.747 3.358 8 6v3c-14.362-.463-29.35-4.007-39.813-14.563l-1.636-1.777c-1.477-1.58-2.995-2.928-4.676-4.285-2.813-2.324-5.406-4.688-7.875-7.375v-2l-1.797-.781c-2.38-1.317-3.713-2.645-5.453-4.719l-1.578-1.844C439 650 439 650 439 648h-2c-8.602-14.983-9.633-29.156-9-46l-1.83.617-2.424.813-2.393.804c-5.972 1.944-11.692 3.024-17.958 3.52-2.511.258-4.929.716-7.395 1.246-.45 21.308 3.832 34.733 16.59 51.984C414 663 414 663 415.05 665.121c1.43 2.83 3.69 4.67 5.95 6.879a376.262 376.262 0 0 1 2.688 3.313c4.15 4.931 9.52 9.79 15.312 12.687v2l2.11.734c2.728 1.195 5.01 2.638 7.446 4.339 8.274 5.751 16.862 8.969 26.444 11.927v2l1.758.148 2.367.227c.766.07 1.531.14 2.32.21 2.555.415 2.555.415 5.461 1.392 3.18 1.051 6.154 1.574 9.469 2.023 3.563.514 7.033 1.027 10.5 2 5.229 1.434 10.656 1.895 16.027 2.535C526 718 526 718 527 719c2.637.29 5.258.523 7.902.719l2.403.19c2.544.201 5.088.397 7.633.591 3.342.256 6.685.517 10.027.781l2.345.174c5.465.432 5.465.432 7.69 1.545 3.448.408 6.894.765 10.352 1.074 5.315.552 9.708 1.876 14.648 3.926v2l4 1c.977 6.055.977 6.055 1 8-2 2-2 2-4.603 2.21-1.102-.02-2.205-.04-3.34-.059l-3.785-.051-4.116-.088a3911.95 3911.95 0 0 0-4.224-.069c-2.96-.049-5.918-.104-8.877-.164-3.768-.077-7.536-.142-11.304-.202-2.913-.047-5.827-.099-8.74-.152-1.388-.025-2.775-.05-4.162-.073-21.878-.381-21.878-.381-23.849-2.352-1.72-.263-3.449-.468-5.18-.648l-3.258-.36c-2.252-.24-4.504-.477-6.757-.71-8.275-.922-16.002-2.616-23.868-5.345-2.563-.818-4.92-1.297-7.562-1.75-5.48-1.076-10.34-2.981-15.412-5.294a452.385 452.385 0 0 0-4.371-1.957C440.554 717.042 430.837 712.353 422 704l-2.7-2.352c-4.538-3.962-8.555-7.94-12.3-12.648l-2.5-2.5c-2.695-2.695-5.061-5.573-7.5-8.5l-2.352-2.3c-2.75-2.803-5.16-5.762-7.523-8.888l-1.31-1.717a327.372 327.372 0 0 1-9.346-12.954c-1.24-1.806-2.536-3.572-3.844-5.328-1.907-3.3-2.323-6.04-2.625-9.813h-2c-1.519-5.03-2.645-10.017-3.563-15.188C363.39 615.87 363.39 615.87 362 610l-1.906-.113c-12.429-.955-12.429-.955-16.094-3.887-6.21-10.505-6.237-21.496-6.25-33.313l-.004-2.175c.011-27.837 8.34-50.912 25.779-72.67a545.93 545.93 0 0 0 4.838-6.112l1.529-1.944c1.372-1.86 1.372-1.86 1.108-4.786l-9-3v-2l-2.438-.375L357 479l-1-2c-2.017-1.134-2.017-1.134-4-2v-2l-4-2v-2l-1.781-.262c-2.83-.942-3.844-2.254-5.719-4.55-1.922-2.31-3.781-4.462-5.938-6.563C333 456 333 456 333 454l-3-1c-1.281-1.453-1.281-1.453-2.5-3.25l-1.3-1.906A165.026 165.026 0 0 1 322 441l-2-3v-3h-2c-2.233-4.693-4.46-9.389-6.676-14.09a510.596 510.596 0 0 0-3.93-8.164c-3.887-8.027-6.71-16.74-6.394-25.746h-2c-4.288-16.08-4.288-16.08-1.09-22.957 2.733-3.47 6.4-5.709 10.09-8.043 3.04-2.42 5.877-4.877 8.625-7.625 2.04-2.04 3.965-3.796 6.375-5.375h2v-2c13.794-6.399 27.37-11.453 42.133-15.035 2.4-.6 4.787-1.259 7.144-2.01 3.877-.995 7.158-1.199 11.153-1.185h2.048c1.413.004 2.826.012 4.24.024 2.172.019 4.344.02 6.516.02 10.618.038 10.618.038 11.766 1.186 1.72.278 3.442.55 5.167.798 17.2 2.549 31.968 8.716 45.833 19.202l-.105-3.742c-.562-28.65 7.1-56.642 27.105-78.258h2l.625-2.063c1.804-3.853 4.276-7.015 7.375-9.937h2l2-4h2l1-3c5.465-5 5.465-5 8-5l1-3c2.215-2.008 2.215-2.008 4.938-4.125l2.714-2.133c4.186-3.106 6.222-2.87 11.348-1.742Z" fill="#645C8B" data-index="0" style="opacity: 1; visibility: visible; fill: rgb(100, 92, 139);"/>
    <path d="M741.17 366.707A216.012 216.012 0 0 0 746 370c-.514 7.821-2.593 14.669-5.125 22.062l-1.228 3.622C733.539 413.433 726.292 429.588 714 444l-1.828 2.27c-14.37 17.237-37.972 30.331-60.215 33.394-11.762.999-23.011 1.07-34.52-1.852l-2.432-.594c-3.55-1-5.507-1.615-7.896-4.507a150.003 150.003 0 0 1-3.296-8.899C601.3 457.09 597.715 452.324 593 447a613.839 613.839 0 0 1-4-5c16.548-18.088 40.294-27.148 63.172-34.23 9.569-2.966 19.07-6.128 28.56-9.336 1.988-.67 3.979-1.336 5.97-1.998 2.92-.97 5.834-1.953 8.747-2.94l2.686-.884c7.707-2.606 7.707-2.606 12.865-8.612-8.829-.26-17.08.335-25.75 2l-3.505.662C669.492 389.106 657.769 392.857 646 397l-2.297.785c-10.368 3.543-20.15 8.147-29.988 12.945C602.838 416 602.838 416 599 416c.56-3.656.56-3.656 2.496-5.168l1.942-1.02c3.436-1.987 6.092-4.171 8.937-6.937C626.097 390.228 644.478 381.865 662 376v-3c-19.595-1.22-36.307 7.142-50.918 19.64-7.989 7.532-13.988 16.788-19.258 26.339-2.325 4.213-4.867 8.165-7.695 12.056-1.32 2.297-1.736 4.36-2.129 6.965l-2.273-.656c-8.025-2.183-15.579-3.64-23.727-1.344 1.053-22.84 12.435-45.278 27.871-61.707 1.868-2.012 3.55-4.082 5.254-6.23C602.165 353.222 621.38 345.086 640 340l2.406-.746c34.342-9.576 71.655 8.145 98.763 27.453Z" fill="#F6F2FC" data-index="1" style="opacity: 1;"/>
    <path d="M465.525 366.704c7.265 6.384 13.13 13.238 18.475 21.296l1.176 1.715C493.5 402.003 503 419.934 503 435l-3.078-.105c-8.78-.206-16.464.414-24.922 3.105l-.746-2.191c-3.725-8.343-11.477-14.41-19.254-18.809l-1.749-.995c-16.285-9.172-33.279-15.826-50.938-21.817l-2.088-.718c-17.117-5.86-34.1-8.75-52.225-8.47 6.695 7.774 16.46 9.915 26 12.75l6.98 2.125c3.398 1.03 6.797 2.058 10.198 3.078 12.635 3.806 24.984 8.12 37.197 13.11l3.618 1.461c10.035 4.191 19.106 9.267 27.07 16.726l2.722 2.516C464 439 464 439 466 442c-.09 1.984-.09 1.984-1 4-2.066 1.703-2.066 1.703-4.562 3.25l-2.504 1.578L456 452l-1.184-2.25C446.332 436.905 428.144 432.224 414 429c-11.51-2.238-23.331-2.961-35-4 1.56 3.743 3.323 5.442 6.898 7.129 5.738 2.31 11.692 3.534 17.727 4.809 16.795 3.741 30.98 8.466 45.375 18.062 1.655.385 3.322.728 5 1l-6 15-.57 2.668c-1.69 2.756-2.28 2.863-5.297 3.695-1.664.346-3.334.66-5.008.95l-2.69.496c-24.598 4.156-48.228-.137-68.876-14.508C341.136 445.6 325.314 421.335 317 392l-.803-2.797a738.417 738.417 0 0 1-2.197-7.89l-.667-2.411c-1.452-5.544-1.452-5.544-.333-8.902 1.934-1.543 1.934-1.543 4.438-3.187a93.658 93.658 0 0 0 10-7.688c9.843-7.949 22.368-12.602 34.25-16.625l2.173-.737c35.106-11.256 74.687 1.726 101.664 24.94Z" fill="#F6F3FC" data-index="2" style="opacity: 1; visibility: visible;"/>
    <path d="M526 240c6.338 2.94 10.482 7.035 14 13a214.765 214.765 0 0 0 4.348 3.586c3.266 2.795 5.92 6.108 8.652 9.414l1.24 1.473C566.01 281.527 574.282 296.21 579 314l.593 2.207c1.675 7.122 1.712 14.238 1.668 21.517-.011 2.102 0 4.203.012 6.305a7436658113.269 7436658113.269 0 0 1-.015 7.716c-.256 3.227-.766 5.398-2.258 8.255a173.328 173.328 0 0 1-4.333 3.51c-3.28 2.933-5.583 6.681-8.042 10.303l-1.652 2.388A898.432 898.432 0 0 0 561 382c-1.435-2.869-.289-4.751.506-7.713.825-3.82.743-7.584.682-11.474l-.002-2.366c-.03-3.94-.222-7.6-1.186-11.447l-5 1-.335 1.969c-.511 2.99-1.026 5.979-1.54 8.969l-.527 3.095c-.779 4.513-1.578 8.982-2.676 13.428-1.302 5.676-1.467 11.429-1.797 17.226-.626 9.603-1.73 18.248-5.125 27.313l-1.625-.875c-2.727-1.292-5.508-2.19-8.375-3.125l.013-2.827c.041-8.882.071-17.764.09-26.647.011-4.564.025-9.128.048-13.692.022-4.422.034-8.844.039-13.266.003-1.67.01-3.339.021-5.008.058-9.196-.223-18.277-1.098-27.436l-.236-2.541c-.44-4.18-1.028-7.747-2.877-11.583h-3c-2.243 6.376-2.42 12.483-2.59 19.203l-.111 3.681c-.433 15.184-.634 30.373-.831 45.56-.052 3.918-.107 7.834-.161 11.751-.106 7.602-.208 15.203-.307 22.805-1.29.672-2.581 1.337-3.875 2l-2.18 1.125C515 422 515 422 513 422l-.262-2.168c-2.995-21.244-15.514-42.016-31.375-56.414C480 362 480 362 480 360l-1.953-.54C476 358 476 358 475.39 354.728a135.62 135.62 0 0 1-.141-4.102l-.079-2.207c-.049-1.47-.089-2.941-.12-4.413a123.435 123.435 0 0 0-.242-4.923c-1.045-22.82 6.83-45.42 20.191-63.582 2.138-2.917 4.25-5.821 6.188-8.875 2.01-2.913 4.25-5.188 6.812-7.625l2.688-2.813C513 254 513 254 515 254l.625-1.688C517 250 517 250 519.938 247.563c2.868-2.4 4.372-4.277 6.062-7.562Z" fill="#F8F8FD" data-index="3" style="opacity: 1; visibility: visible; fill: rgb(237, 228, 252);"/>
    <path d="M610 491c4.623.445 8.744 1.21 13.188 2.563 13.84 3.543 28.522 2.44 41.812-2.563l2.117 2.152 2.758 2.786 2.742 2.777c2.16 2.297 2.16 2.297 4.383 3.285v2l3 1a103.315 103.315 0 0 1 5.313 6.688l1.486 2.038c4.52 6.397 7.539 12.89 10.201 20.274l1.176 3.191c3.979 11.33 5.127 21.553 5.011 33.559l-.001 3.902c-.026 5.58-.147 10.852-1.186 16.348-5.334.739-10.565 1.178-15.953 1.238l-2.224.03c-35.763.383-66.261-7.183-93.823-31.268a952.828 952.828 0 0 0-6-5l-2.688-2.25c-2.274-1.915-2.274-1.915-5.312-2.75.115 2.042.243 4.084.375 6.125.07 1.137.14 2.274.21 3.445.294 3.412.294 3.412 1.438 6.45 1.092 3.33 1.244 6.045 1.227 9.543l.016 3.316c-.264 3.102-.951 5.319-2.266 8.121-.91-3.05-1.023-5.581-.875-8.75.097-10.367-2.19-20.693-6.125-30.25v-3c2.388-1.624 4.749-3.07 7.25-4.5 15.47-9.29 26.405-20.19 31.04-38.172.88-4.126 1.42-8.12 1.71-12.328Z" fill="#E7D8FC" data-index="4" style="opacity: 1; visibility: visible; fill: rgb(237, 228, 252);"/>
    <path d="M496 450c2.563 2.25 2.563 2.25 4 5l1.313 2.063c1.037 2.925.093 5.029-1.145 7.796l-.98 1.891-1.07 2.094c-.746 1.437-1.49 2.875-2.235 4.312l-1.07 2.094-.981 1.89c-3.237 7.234-2.928 16.663-.96 24.196 3.76 9.591 8.914 16.23 17.253 22.226 9.297 6.785 11.493 13.435 14.09 24.356.506 2.051 1.136 4.071 1.785 6.082l3 1 .836-2.508L531 549l1.227-3.805c3.25-9.662 6.692-15.697 15.039-21.87 8.79-6.504 14.917-14.323 16.734-25.325 1.025-10.62-1.049-20.196-5.688-29.75-2.295-4.827-3.137-7.935-2.312-13.25 1.375-3 1.375-3 4-5 5.692-1.136 10.986-.346 15.996 2.559C585.092 459.1 590.476 467.426 594 478c1.343 13.72.152 25.53-7.563 37.25-6.882 8.33-17.002 13.916-26.18 19.388-3.18 1.92-5.167 3.227-7.257 6.362-.65 6.028 1.006 10.21 3.438 15.563 4.816 10.787 6.013 20.324 2.609 31.789C554.979 598.642 546.63 603.576 537 608l-2.488 1.156c-6.845 2.3-14.772-.044-21.164-2.87-8.363-4.578-14.1-11.872-17.723-20.598-1.67-9.85-.552-17.32 3.24-26.46 2.572-6.416 3.209-12.58 1.01-19.228-2.565-4.627-6.985-6.918-11.377-9.572-13.101-7.935-22.851-18.748-26.748-33.74-2.433-12.877.262-23.36 6.938-34.563C475.265 452.84 484.803 448.487 496 450Z" fill="#EDE4FC" data-index="5" style="opacity: 1; visibility: visible; fill: rgb(246, 243, 252);"/>
    <path d="M446 491c.781 4.688.781 4.688 1 7l.41 3.945c-.036 3.588-.26 3.9-2.945 6.672a90.61 90.61 0 0 1-3.527 2.258l-1.907 1.26A380.838 380.838 0 0 1 433 516a1015.472 1015.472 0 0 0-7.5 4.938l-1.893 1.252C406.839 533.382 389.16 546.678 380 565c9.232-2.646 16.397-7.329 24-13l3.89-2.867c8.834-6.545 17.503-13.294 26.11-20.133l2.848-2.254c4.805-3.82 9.52-7.718 14.152-11.746l1.836 2.527c7.993 10.815 18.24 23.676 32.164 26.473.657 8.05-1.77 15.357-4 23l-2-2c.181-2.767.464-5.392.875-8.125l.316-2.285c.26-1.865.533-3.728.809-5.59-5.046 2.638-8.445 5.237-12.313 9.5-19.503 20.444-48.626 32.572-76.687 33.5-6.354.14-12.708.178-19.063.188l-2.505.003c-2.364 0-4.728-.01-7.092-.023l-2.198-.004c-5.025-.047-5.025-.047-6.142-1.164-5.641-28.327 1.388-55.512 16.527-79.441 3.847-5.755 8.598-10.669 13.473-15.559l2.184-2.34L389 492c2.25.125 2.25.125 5 1 7.214 2.24 14.1 2.383 21.625 2.375l3.771.004c9.16-.106 18.028-4.379 26.604-4.379Z" fill="#E9DEFA" data-index="6" style="opacity: 1; visibility: visible; fill: rgb(237, 228, 252);"/>
    <path d="M450 590c1 3 1 3 1.29 4.945 1.293 8.393 6.234 13.705 12.147 19.492L466 617v2l1.688.688c2.96 1.68 4.924 3.886 7.312 6.312 7.766 7.43 15.872 14.192 24.385 20.74 2.348 1.832 4.632 3.738 6.928 5.635 4.886 3.933 10.097 6.83 15.687 9.625v2l1.777.344c2.418.714 3.778 1.647 5.785 3.156 4.726 3.27 9.734 5.609 14.938 8 5.897 2.712 11.485 5.406 16.71 9.309 2.154 1.434 4.37 2.297 6.79 3.191v2l1.938.313c2.51.563 4.82 1.239 7.25 2.062l2.255.76c1.612.546 3.221 1.1 4.826 1.667 6.366 2.111 12.112 2.657 18.793 2.573l2.815.035c7.915-.033 14.598-1.82 21.56-5.597C631 690 631 690 633 690l1-3h2l.75-1.625C638 683 638 683 640.063 679.937c4.044-6.132 3.524-12.812 2.937-19.937-.843-2.763-1.888-5.258-3.102-7.875-1.193-2.824-1.35-5.106-.898-8.125 2-2 2-2 4.625-2.438 4.808.624 7.872 2.056 11.375 5.438 6.695 10.17 9.399 18.826 8 31-1.596 4.272-3.613 8.12-6 12h-2l-.813 2.438L653 695l-3 1c-1.209 2-1.209 2-2 4h-2l-1 3c-2.063.688-2.063.688-4 1v2c-10.842 6.493-20.13 11.45-33 12l-2.041.099c-19.098.818-33.832-3.932-50.959-12.099v-2l-1.96-.18c-4.389-1.184-7.845-3.53-11.665-5.945l-2.427-1.508c-5.223-3.253-10.406-6.567-15.58-9.894-2.233-1.389-4.492-2.663-6.806-3.91-4.791-2.6-9.26-5.633-13.765-8.696-2.764-1.895-2.764-1.895-5.656-3.484L495 669v-2l-5-2v-2l-5-2v-2l-2-.563c-6.325-3.03-11.094-8.53-16-13.437l-3-2v-2l-1.688-.75c-5.319-2.875-8.932-6.966-12.761-11.543-1.458-1.81-1.458-1.81-3.551-2.707 1.124 3.89 2.035 6.272 5 9l1.277 2.203c2.005 3.255 4.36 6.098 6.848 8.985l1.479 1.72c.993 1.155 1.99 2.307 2.987 3.458a399.522 399.522 0 0 1 3.745 4.423c4.554 5.31 9.318 9.459 15.086 13.422 4.644 3.223 8.589 6.8 12.578 10.789 3.747 3.358 3.747 3.358 8 6v3c-14.362-.463-29.35-4.007-39.813-14.563l-1.636-1.777c-1.477-1.58-2.995-2.928-4.676-4.285-2.813-2.324-5.406-4.688-7.875-7.375v-2l-1.797-.781c-2.38-1.317-3.713-2.645-5.453-4.719l-1.578-1.844C439 650 439 650 439 648h-2c-8.602-14.983-9.633-29.156-9-46l-2-1 4-1 1 4 2-2.75c4.067-4.887 9.722-7.465 16-8.25l1-3Z" fill="#8B81B0" data-index="7" style="opacity: 1; visibility: visible; fill: rgb(246, 243, 252); stroke: rgb(246, 243, 252);"/>
    <path d="M351 607c2.709.142 5.417.288 8.125.438l2.305.119c4.255.238 8.374.645 12.57 1.443v2c4.003.092 4.003.092 8 0l1-1c6.462-.359 6.462-.359 10 2l1-4h6l-4 1c-.45 21.308 3.832 34.733 16.59 51.984C414 663 414 663 415.05 665.121c1.43 2.83 3.69 4.67 5.95 6.879a376.262 376.262 0 0 1 2.688 3.313c4.15 4.931 9.52 9.79 15.312 12.687v2l2.11.734c2.728 1.195 5.01 2.638 7.446 4.339 8.274 5.751 16.862 8.969 26.444 11.927v2l1.758.148 2.367.227 2.32.21c2.555.415 2.555.415 5.461 1.392 3.18 1.051 6.154 1.574 9.469 2.023 3.563.514 7.033 1.027 10.5 2 5.229 1.434 10.656 1.895 16.027 2.535C526 718 526 718 527 719c2.637.29 5.258.523 7.902.719l2.403.19c2.544.201 5.088.397 7.633.591 3.342.256 6.685.517 10.027.781l2.345.174c5.465.432 5.465.432 7.69 1.545 3.448.408 6.894.765 10.352 1.074 5.315.552 9.708 1.876 14.648 3.926v2l4 1c.977 6.055.977 6.055 1 8-2 2-2 2-4.603 2.21-1.102-.02-2.205-.04-3.34-.059l-3.785-.051-4.116-.088a3911.95 3911.95 0 0 0-4.224-.069c-2.96-.049-5.918-.104-8.877-.164-3.768-.077-7.536-.142-11.304-.202-2.913-.047-5.827-.099-8.74-.152-1.388-.025-2.775-.05-4.162-.073-21.878-.381-21.878-.381-23.849-2.352-1.72-.263-3.449-.468-5.18-.648l-3.258-.36c-2.252-.24-4.504-.477-6.757-.71-8.275-.922-16.002-2.616-23.868-5.345-2.563-.818-4.92-1.297-7.562-1.75-5.48-1.076-10.34-2.981-15.412-5.294a452.385 452.385 0 0 0-4.371-1.957C440.554 717.042 430.837 712.353 422 704l-2.7-2.352c-4.538-3.962-8.555-7.94-12.3-12.648l-2.5-2.5c-2.695-2.695-5.061-5.573-7.5-8.5l-2.352-2.3c-2.75-2.803-5.16-5.762-7.523-8.888l-1.31-1.717a327.372 327.372 0 0 1-9.346-12.954c-1.24-1.806-2.536-3.572-3.844-5.328-1.907-3.3-2.323-6.04-2.625-9.813h-2c-1.519-5.03-2.645-10.017-3.563-15.188C363.39 615.87 363.39 615.87 362 610l-2.152-.148-2.786-.227c-.916-.07-1.833-.14-2.777-.21L352 609l-1-2Z" fill="#8C7DB3" data-index="8" style="opacity: 1; visibility: visible; fill: rgb(237, 228, 252);"/>
    <path d="m662 372 1 4a110.235 110.235 0 0 1-14.063 6.25c-15.397 5.834-28.658 14.361-40.55 25.77C606 410 606 410 602.77 411.574c-3.074 1.175-3.074 1.175-3.77 4.426 6.604-2.598 13.014-5.463 19.39-8.573 21.885-10.655 44.976-18.61 68.985-22.865l2.788-.496c6.816-1.114 14.176-2.286 20.837-.066-1.425 3.443-2.865 5.003-6 7-2.6.997-5.16 1.899-7.809 2.742l-2.31.759a1648.83 1648.83 0 0 1-7.318 2.374 3699.347 3699.347 0 0 0-9.56 3.117l-2.35.769c-5.712 1.884-11.3 3.99-16.897 6.194-3.628 1.376-7.259 2.411-11.006 3.42-12.436 3.534-23.99 8.454-35.313 14.688l-2.198 1.21c-4.425 2.507-8.459 5.293-12.444 8.454-2.43 1.723-4.922 2.555-7.795 3.273v2c-2.313.625-2.313.625-5 1l-3-2c-.614-4.66.294-7.144 2.938-10.938 2.146-3.17 4.248-6.325 6.144-9.652C602.604 398.21 618.45 381.576 641 374c7-1.841 13.786-2.282 21-2Z" fill="#827BA8" data-index="9" style="opacity: 1; visibility: visible; fill: rgb(165, 160, 206);"/>
    <path d="m402 393 2.953.96c12.188 4.032 23.96 8.696 35.547 14.228l3.09 1.475c8.299 4.071 15.909 8.68 22.785 14.9l2.46 2.19c2.184 2.267 3.664 4.492 5.165 7.247h-2l.563 1.875C473 438 473 438 472 440l-1.938.438c-2.444.424-2.444.424-4.062 3.562l-.926-1.434C457.496 431.616 446.962 425.255 435 420l-2.62-1.178c-16.413-7.308-33.14-12.72-50.383-17.674-26.382-7.596-26.382-7.596-33.997-14.148v-2c13.68-6.84 40.558 3.607 54 8Z" fill="#867CA7" data-index="10" style="opacity: 1; visibility: visible; fill: rgb(165, 160, 206);"/>
    <path d="M542 471c5.044 4.334 8.135 12.437 8.688 19-.51 6.574-4.14 13.323-8.622 18.031-5.239 4.167-10.64 6.204-17.379 6.156-6.309-.887-10.681-5.523-14.687-10.187-3.581-6.038-4.022-11.122-3-18 1.529-4.866 3.733-9.44 6-14l1.469 1.277c3.953 3.231 7.25 5.664 12.449 5.961 5.956-.681 11.29-3.62 15.082-8.238Z" fill="#E2DDF8" data-index="11" style="opacity: 1; visibility: visible; fill: rgb(165, 160, 206);"/>
    <path d="M527 314c1.938.125 1.938.125 4 1 8.05 15.639 4.341 40.807 4.316 58.015-.006 4.304.011 8.608.034 12.912.015 3.333.016 6.667.013 10 0 1.59.005 3.18.015 4.768.013 2.201.006 4.401-.006 6.602l.002 3.788L535 414c-3.188 2.125-5.265 2.502-9 3l-.438-2.25c-.462-2.263-1.002-4.51-1.562-6.75v9h-1c-.024-8.252-.041-16.504-.052-24.756-.005-3.836-.012-7.67-.023-11.506-.046-15.506-.027-31.004.454-46.504l.093-3.457c.499-13.748.499-13.748 3.528-16.777Z" fill="#7C72A2" data-index="12" style="opacity: 1; visibility: visible; fill: rgb(165, 160, 206);"/>
    <path d="M447 503c2.633 3.95 4.437 7.148 4 12-5.088 7.904-14.43 13.52-21.93 19-3.723 2.724-7.341 5.56-10.945 8.438a571.332 571.332 0 0 1-16.438 12.5l-2.208 1.648C393.532 560.91 387.525 565 380 565c6.363-21.53 33.46-37.093 51.11-48.75a1023.24 1023.24 0 0 0 9.265-6.188c1.06-.71 2.12-1.42 3.21-2.152 2.666-1.75 2.666-1.75 3.415-4.91Z" fill="#766998" data-index="13" style="opacity: 1; visibility: visible; fill: rgb(165, 160, 206);"/>
    <path d="M609 506c11.585 1.725 22.146 12.55 31.126 19.545 1.53 1.188 3.07 2.362 4.612 3.533C656.017 537.652 668.985 547.876 675 561v3c-10.73-2.372-21.198-9.607-29.336-16.688-2.925-2.538-5.96-4.905-9.039-7.25l-1.643-1.259a1436.458 1436.458 0 0 0-8.345-6.342 454.07 454.07 0 0 1-6.528-5.027 244.358 244.358 0 0 0-6.218-4.711c-2.697-2.12-4.91-3.92-6.891-6.723-.223-3.702.568-6.604 2-10Z" fill="#6A5C8A" data-index="14" style="opacity: 1; visibility: visible; fill: rgb(165, 160, 206);"/>
    <path d="m680 425 2 2c-5.026 3.784-10.077 5.604-16.063 7.438l-2.922.92c-6.553 2.018-13.131 3.622-19.827 5.08-11.525 2.549-22.03 7.024-31.875 13.562-3.513 2.12-5.29 2.589-9.313 2-1-1-1-1-1.035-4.176 1.437-5.308 4.201-6.98 8.597-10.012l2.096-1.537c7.164-5.147 14.376-8.66 22.904-10.9l2.442-.641c13.167-3.223 29.433-5.525 42.996-3.734Z" fill="#897EAF" data-index="15" style="opacity: 1; visibility: visible; fill: rgb(165, 160, 206);"/>
    <path d="M379 425c25.976.743 55.283 2.898 75 22 1.836 2.605 1.836 2.605 3 5-.813 2.313-.813 2.313-2 4-5.262.463-7.8-.755-12.125-3.688-13.081-8.464-27.51-12.102-42.594-15.34C385.82 433.85 385.82 433.85 380 429c-.688-2.156-.688-2.156-1-4Z" fill="#9186B3" data-index="16" style="opacity: 1; visibility: visible; fill: rgb(165, 160, 206);"/>
    <path d="m662 372 1 4a110.235 110.235 0 0 1-14.063 6.25c-15.397 5.834-28.658 14.361-40.55 25.77C606 410 606 410 602.77 411.574c-3.074 1.175-3.074 1.175-3.77 4.426l2 1a992.081 992.081 0 0 1-4.313 2.938l-2.425 1.652C592 423 592 423 589 424c7.59-20.047 23.903-37.026 42.98-46.477 9.886-4.373 19.255-5.943 30.02-5.523Z" fill="#9593BB" data-index="17" style="opacity: 1; visibility: visible; fill: rgb(165, 160, 206);"/>
    <path d="M396 372c5.142-.18 9.732.393 14.688 1.688l2.114.55c11.79 3.18 20.722 8.011 30.198 15.762l2.215 1.715c6.124 4.96 14.57 13.199 15.785 21.285l-5-2v-2l-2.875-.5c-3.587-1.019-5.898-2.748-8.75-5.125-11.403-9.48-24.622-15.667-37.862-22.143A1286.29 1286.29 0 0 1 396 376v-4Z" fill="#958EB5" data-index="18" style="opacity: 1; visibility: visible; fill: rgb(165, 160, 206);"/>
    <path d="M529.816 433.543c3.519.736 5.041 2.684 7.184 5.457l1.605 1.836c2.584 4.009 2.001 8.575 1.395 13.164-1.75 3.438-1.75 3.438-4 6l-1.875 2.313c-2.885 2.29-4.42 2.832-8.125 2.687-5.328-3.016-8.281-7.136-10-13-.913-6.625.932-10.978 4.625-16.375 3.135-2.145 5.447-2.248 9.191-2.082Z" fill="#F6F6FC" data-index="19" style="opacity: 1;"/>
    <path d="M385.43 322.77h2.048c1.413.004 2.826.012 4.24.024 2.172.019 4.344.02 6.516.02 10.618.038 10.618.038 11.766 1.186 1.72.278 3.442.55 5.167.798 14.62 2.167 30.195 6.704 41.833 16.202l2 3-2 1c-.696-.76-1.392-1.519-2.11-2.3-6.179-5.77-14.693-8.84-22.945-10.333-2.742-.518-5.323-1.426-7.945-2.367v-2l-1.984.07c-7.413.147-16.24.318-23.016-3.07-13.062-.198-25.18 2.02-37.75 5.396-1.931.518-3.87 1.01-5.809 1.495-4.843 1.235-9.012 2.74-13.441 5.109l-2.852.84c-3.416 1.259-5.465 2.793-8.21 5.16-3.244 2.788-5.946 4.501-9.938 6-3.962 2.992-6.94 6.123-10 10-3.517 3-3.517 3-6 3l-1 3h-2l-1 3-2 1c.83 5.435 2.17 10.666 3.574 15.977.454 3.223.216 4.374-1.574 7.023v-5h-2c-4.288-16.08-4.288-16.08-1.09-22.957 2.733-3.47 6.4-5.709 10.09-8.043 3.04-2.42 5.877-4.877 8.625-7.625 2.04-2.04 3.965-3.796 6.375-5.375h2v-2c13.794-6.399 27.37-11.453 42.133-15.035 2.4-.6 4.787-1.259 7.144-2.01 3.877-.995 7.158-1.199 11.153-1.185Z" fill="#B5B5D0" data-index="20" style="visibility: visible; fill: rgb(100, 92, 139); stroke: rgb(100, 92, 139); opacity: 1;"/>
    <path d="M561 349c2.294 4.57 2.312 8.631 2.25 13.625l-.03 2.434c-.222 11.063-1.666 17.844-8.243 26.992-2.728 4.07-4.422 8.324-5.977 12.949h-1c.026-13.423 1.291-26.191 4-39.313l.417-2.024c2.308-11.114 2.308-11.114 3.583-13.663 3-1 3-1 5-1Z" fill="#A5A0CE" data-index="21" style="opacity: 1; visibility: visible; fill: rgb(165, 160, 206);"/>
    <path d="m501 349 2 1a98.587 98.587 0 0 1 1.945 7.27l.53 2.256a837.6 837.6 0 0 1 1.65 7.286l.559 2.478c2.755 12.348 4.463 24.026 3.316 36.71-2.764-2.764-4.031-6.113-5.625-9.625l-.984-2.14c-.801-1.744-1.597-3.49-2.391-5.235h2l-2.313-3.063c-5.756-9.256-6.918-22.26-5.687-32.937 2-3 2-3 5-4Z" fill="#AAABD5" data-index="22" style="opacity: 1; visibility: visible; fill: rgb(165, 160, 206);"/>
    <path d="M533 227c2.773 1.785 2.773 1.785 5.375 4.063l2.844 2.46L544 236l2.531 2.164c4.276 3.691 7.946 7.432 11.469 11.836l2.563 2.563c2.354 2.354 4.405 4.803 6.437 7.437l-1 2-1.68-1.969-2.195-2.531-2.18-2.531L558 253h-2v-2h-2v-2h-2a90.488 90.488 0 0 1-4-4l-1 4h-1l-.438-3.375c-.346-3.446-.346-3.446-1.562-5.625h-2l-2-3-3-1a101.46 101.46 0 0 1-3-3c-1.75-1.833-1.75-1.833-4-3-5.34.24-7.774 2.107-11.563 5.75l-2.753 2.61c-3.258 3.205-6.502 6.421-9.684 9.702-2 1.938-2 1.938-4.313 3.625-5.225 4.496-9.356 9.802-11.687 16.313h-2l-1 3-2.875 1.625c-3.75 2.85-4.13 4.618-5.344 8.984-1.252 3.833-3.32 7.207-5.781 10.391l-2 1a78.037 78.037 0 0 0-2 5c-1-3-1-3 .188-5.969C480.37 270.244 480.37 270.244 488 262h2l.625-2.063c1.804-3.853 4.276-7.015 7.375-9.937h2l2-4h2l1-3c5.465-5 5.465-5 8-5l1-3c2.215-2.008 2.215-2.008 4.938-4.125l2.714-2.133c4.186-3.106 6.222-2.87 11.348-1.742Z" fill="#BCBDD9" data-index="23" style="opacity: 1; visibility: visible; fill: rgb(100, 92, 139);"/>
    <path d="M576 725c5.42-.407 9.07.96 14 3v2l4 1c.977 6.055.977 6.055 1 8-2 2-2 2-4.603 2.21l-3.34-.059-3.785-.051-4.116-.088a3911.95 3911.95 0 0 0-4.224-.069c-2.96-.049-5.918-.104-8.877-.164-3.768-.077-7.536-.142-11.304-.202-2.913-.047-5.827-.099-8.74-.152-1.388-.025-2.775-.05-4.162-.073-21.878-.381-21.878-.381-23.849-2.352a71.98 71.98 0 0 0-4.254-.535l-2.588-.264-2.72-.264-2.733-.275c-2.235-.225-4.47-.445-6.705-.662v-1c16.203-.266 16.203-.266 23 2 2.905.069 5.795-.002 8.7-.063 3.3.063 3.3.063 6.965.56 4.347.561 8.614.63 12.991.6l2.387-.004c2.486-.005 4.971-.018 7.457-.03A5289.668 5289.668 0 0 0 578 738v-12l-2-1Z" fill="#ACA9CB" data-index="24" style="visibility: visible; opacity: 1; fill: rgb(237, 228, 252); stroke: rgb(237, 228, 252);"/>
    <path d="m650.576 322.861 2.361.006 2.41-.003c1.685 0 3.37.001 5.054.006 2.588.005 5.175 0 7.763-.007 1.633 0 3.266.002 4.898.004l2.362-.006c5.461.024 5.461.024 6.576 1.139 1.991.332 3.984.657 5.98.95 7.834 1.154 14.834 2.608 22.02 6.05 1.417.604 2.833 1.209 4.25 1.812 8.095 3.643 16.197 7.517 23.75 12.188l-1 2-1.68-.886a32656.907 32656.907 0 0 0-10.215-5.384l-2.558-1.347-2.349-1.238L718 337l-2.132-1.122c-1.903-.993-1.903-.993-4.306-1.316C709 334 709 334 706.882 332.594c-3.747-2.072-7.4-2.81-11.57-3.657l-2.279-.486a495.37 495.37 0 0 0-4.643-.96c-1.612-.331-3.22-.681-4.825-1.048-6.142-1.359-11.97-1.757-18.253-1.693l-2.901.016c-7.94.105-15.583.861-23.411 2.234l-3.36.578A452.68 452.68 0 0 0 628 329l1-2c2.51-.613 4.96-1.122 7.5-1.563 5.026-.899 9.047-2.554 14.076-2.576Z" fill="#B4B6D2" data-index="25" style="visibility: visible; fill: rgb(100, 92, 139); opacity: 1;"/>
    <path d="m332 339 3 1a574.215 574.215 0 0 1-4.188 3.375l-2.355 1.898c-2.437 1.713-4.69 2.665-7.457 3.727-3.962 2.992-6.94 6.123-10 10-3.517 3-3.517 3-6 3l-1 3h-2l-1 3-2 1c.83 5.435 2.17 10.666 3.574 15.977.454 3.223.216 4.374-1.574 7.023v-5h-2c-4.288-16.08-4.288-16.08-1.09-22.957 2.733-3.47 6.4-5.709 10.09-8.043 3.04-2.42 5.877-4.877 8.625-7.625 3.971-3.971 7.402-5.91 12.668-7.727 1.712-.516 1.712-.516 2.707-1.648Z" fill="#8E89AB" data-index="26" style="opacity: 1; visibility: visible; fill: rgb(100, 92, 139); stroke: rgb(100, 92, 139);"/>
    <path d="m498 252 2 1-4 3 2-4Zm-3 4c0 3.633-1.08 4.971-3 8a174.184 174.184 0 0 0-2 4h-2l-1 3-2.875 1.625c-3.75 2.85-4.13 4.618-5.344 8.984-1.252 3.833-3.32 7.207-5.781 10.391l-2 1a78.037 78.037 0 0 0-2 5c-1-3-1-3 .188-5.969C483.9 263.367 483.9 263.367 491 261a95.29 95.29 0 0 0 4-5Z" fill="#B8B4CF" data-index="27" style="visibility: visible; fill: rgb(100, 92, 139); stroke: rgb(100, 92, 139); opacity: 1;"/>
    <path d="m501 349 2 1c1.334 4.445 2.292 8.332 2 13l-6 2-1 5c-2.19-3.536-2.269-6.451-2.25-10.563l-.016-3.44C496 353 496 353 498 350l3-1Z" fill="#A9A7D0" data-index="28" style="opacity: 1; visibility: visible; fill: rgb(165, 160, 206);"/>
    <path d="M531 229c2.175 1.01 4.036 2.028 5.938 3.5 2 1.599 2 1.599 4.41 2.36 6.883 2.96 12.054 9.392 16.652 15.14l2.563 2.563c2.354 2.354 4.405 4.803 6.437 7.437l-1 2-1.68-1.969-2.195-2.531-2.18-2.531L558 253h-2v-2h-2v-2h-2a90.488 90.488 0 0 1-4-4l-1 4h-1l-.438-3.375c-.346-3.446-.346-3.446-1.562-5.625h-2l-2-3-3-1c-1.5-1.375-1.5-1.375-3-3l-1.688-1.625C531 230 531 230 531 229Z" fill="#A7AAC6" data-index="29" style="opacity: 1; visibility: visible; fill: rgb(100, 92, 139); stroke: rgb(100, 92, 139);"/>
    <path d="M401 325c9.868-.312 18.588-.33 28 3 1.353.432 2.708.861 4.063 1.29 20.58 6.673 20.58 6.673 25.937 14.71l-2 1c-.696-.76-1.392-1.519-2.11-2.3-6.179-5.77-14.693-8.84-22.945-10.333-2.742-.518-5.323-1.426-7.945-2.367v-2l-1.984.07c-7.213.143-13.944-.688-21.016-2.07v-1Z" fill="#B0B1CD" data-index="30" style="visibility: visible; fill: rgb(100, 92, 139); stroke: rgb(100, 92, 139); opacity: 1;"/>
    <path d="m602 402 3 2-1.438 1.375c-1.652 1.558-1.652 1.558-2.562 3.625l6-1c-1.637 1.801-2.904 2.955-5.125 4-2.228.912-2.228.912-2.875 4l2 1a992.081 992.081 0 0 1-4.313 2.938l-2.425 1.652C592 423 592 423 589 424c1.45-3.906 3.274-7.404 5.375-11l1.773-3.063c1.782-2.826 3.713-5.374 5.852-7.937Z" fill="#B8B1DC" data-index="31" style="visibility: visible; fill: rgb(165, 160, 206); opacity: 1;"/>
    <path d="M450 407c2.02.602 4.021 1.273 6 2l1 2 2.313.688c4.02 1.963 4.866 4.25 6.687 8.312-.398 2.227-.398 2.227-1 4l-1.504-1.172c-4.345-3.33-8.682-6.22-13.496-8.828l.563-1.813c.658-2.351.658-2.351-.563-5.187Z" fill="#CAC6EE" data-index="32" style="opacity: 1; visibility: visible; fill: rgb(165, 160, 206);"/>
    <path d="M499 735c16.203-.266 16.203-.266 23 2 1.786.046 3.573.038 5.36 0 6.675-.056 13.244.42 19.89 1 1.138.095 2.276.19 3.45.29 2.767.232 5.533.469 8.3.71v1c-4.09.025-8.179.043-12.268.055-1.387.005-2.774.012-4.16.02-17.053.105-17.053.105-23.572-1.075l-1-1a71.98 71.98 0 0 0-4.254-.535l-2.588-.264-2.72-.264-2.733-.275c-2.235-.225-4.47-.445-6.705-.662v-1Z" fill="#B6B7C8" data-index="33" style="visibility: visible; fill: rgb(237, 228, 252); stroke: rgb(237, 228, 252); opacity: 1;"/>
    <path d="M366 622c3.324 4.335 4.12 6.471 4 12h2l.078 2.117.172 2.758.14 2.742L373 644c1.938 1.203 1.938 1.203 4 2 1.125 2.5 1.125 2.5 2 5l2 2-2 2c-4.835-5.871-8.377-10.215-9-18h-2c-1.748-5.244-2.194-9.473-2-15Z" fill="#ADAAC5" data-index="34" style="opacity: 1; visibility: visible; fill: rgb(237, 228, 252); stroke: rgb(237, 228, 252);"/>
    <path d="m635 704 2 1c-2.028 5.07-5.509 6.652-10.137 8.984-6.428 2.28-13.125 2.154-19.863 2.078l-2.348-.013c-1.884-.012-3.768-.03-5.652-.049v-1l2.824-.043c9.27-.347 16.655-2.01 25.176-5.957l2.238-1.035c1.939-.955 1.939-.955 3.762-2.965l2-1Z" fill="#8E86A6" data-index="35" style="visibility: visible; opacity: 1; fill: rgb(246, 243, 252); stroke: rgb(246, 243, 252);"/>
    <path d="m312 352 2 1c-3.143 4.714-7.207 7.38-11.855 10.45-2.25 1.374-2.25 1.374-3.145 3.55-.43 6.022 1.395 10.992 3.223 16.66.77 3.308.742 5.13-.223 8.34h-1v-5h-2c-4.288-16.08-4.288-16.08-1.09-22.957 2.733-3.471 6.41-5.694 10.09-8.043 1.369-1.297 2.717-2.618 4-4Z" fill="#C2C2D8" data-index="36" style="visibility: visible; fill: rgb(100, 92, 139); stroke: rgb(100, 92, 139); opacity: 1;"/>
    <path d="m590 300 2 1a94.629 94.629 0 0 1 1.563 7.375l.394 2.18a140.51 140.51 0 0 1 1.832 15.504c.006 1.945.006 1.945 1.211 2.941.099 1.81.13 3.625.125 5.438l.008 2.996C597 340 597 340 596 342l3 1-4 2-2-22h-1l-.184-3.508-.254-4.617-.119-2.305c-.238-4.255-.645-8.374-1.443-12.57Z" fill="#A8A8C0" data-index="37" style="opacity: 1; visibility: visible; fill: rgb(100, 92, 139);"/>
    <path d="M367 339v3l-1.677.563c-13.682 4.492-13.682 4.492-26.643 10.687L337 354l-2-1c1.375-1.5 1.375-1.5 3-3h2l1-2h3l1-3 2.688.063c2.934-.056 5.467-.394 8.312-1.063l1-3 10-2Z" fill="#8783B5" data-index="38" style="visibility: visible; fill: rgb(100, 92, 139); stroke: rgb(100, 92, 139); opacity: 1;"/>
    <path d="m574 550 4 1h-2c.115 2.042.243 4.084.375 6.125l.21 3.445c.294 3.412.294 3.412 1.438 6.45 1.092 3.33 1.244 6.045 1.227 9.543l.016 3.316c-.264 3.102-.951 5.319-2.266 8.121-.91-3.05-1.023-5.581-.875-8.75.099-8.137-1.393-16.772-3.848-24.535C572 553 572 553 574 550Z" fill="#A9A2C5" data-index="39" style="opacity: 1; visibility: visible; fill: rgb(100, 92, 139); stroke: rgb(100, 92, 139);"/>
    <path d="m527 238 1 2a566.65 566.65 0 0 1-5.375 5.313c-2.671 2.65-2.671 2.65-5 5.625-1.85 2.273-3.803 4.132-6.063 6-3.635 3.005-6.604 6.4-9.562 10.062l-2-2 1.875-2.313c2.181-2.683 2.181-2.683 4.125-5.687h2l1-2 2.25-1.75c2.176-1.78 3.702-3.29 5.438-5.438C519 245 519 245 521 244l1.438-2.5C524 239 524 239 527 238Z" fill="#9793BF" data-index="40" style="opacity: 1; visibility: visible; fill: rgb(100, 92, 139);"/>
    <path d="M302 392c2.704 2.704 3.076 5.714 4 9.313 2.762 10.145 7.321 19.333 12.048 28.688C319 432 319 432 320 435h-2a5735.813 5735.813 0 0 1-7.889-16.645c-.915-1.94-1.833-3.88-2.752-5.82-3.2-6.872-5.737-12.794-5.359-20.535Z" fill="#C5C6D9" data-index="41" style="visibility: visible; fill: rgb(100, 92, 139); opacity: 1;"/>
    <path d="m645 660 3 1c.165 9.414-.864 16.88-6 25l-3 2-1-3 3-4a118.044 118.044 0 0 0 2-7h2v-14Z" fill="#817AA2" data-index="42" style="opacity: 1; visibility: visible; fill: rgb(246, 243, 252); stroke: rgb(246, 243, 252);"/>
    <path d="M643.625 641.563c4.615.598 7.636 2.78 11.375 5.437l-1 2-3-2c-2.05-.451-2.05-.451-4.188-.625L643 646v10c-3.094-3.094-3.42-3.527-3.813-7.563l-.269-2.378c.134-3.37 1.553-3.97 4.707-4.496Z" fill="#AEB1C8" data-index="43" style="opacity: 1; visibility: visible; fill: rgb(246, 243, 252); stroke: rgb(246, 243, 252);"/>
    <path d="M515 472h2l2 3c1.892.681 1.892.681 4 1l1.813.75c4.175.477 7.868-2.017 11.437-4C538 472 538 472 541 473c-4.313 3.902-7.853 6.858-13.945 7.066-5.463-.342-8.262-2.178-12.055-6.066v-2Z" fill="#4F4874" data-index="44" style="opacity: 1; visibility: visible; fill: rgb(165, 160, 206);"/>
    <path d="M490 677c2.96 1.654 5.607 3.437 8.188 5.625 2.548 2.341 2.548 2.341 4.812 3.375v3a712.139 712.139 0 0 1-6.188-.375c-1.148-.07-2.297-.14-3.48-.21-3.132-.39-5.485-1.096-8.332-2.415v-1l9 1v-4l-3-1c-.688-2.063-.688-2.063-1-4Z" fill="#CACEDC" data-index="45" style="visibility: visible; fill: rgb(246, 243, 252); opacity: 1; stroke: rgb(246, 243, 252);"/>
    <path d="M442 400c3.809.672 7.414 1.533 11 3l1 3 5 1 2 6-5-2v-2l-3.063-.625c-4.533-1.267-7.716-4.017-10.937-7.375v-1Z" fill="#A49FCD" data-index="46" style="opacity: 1;"/>
    <path d="M738 347c3.906.593 6.218 2.486 9.25 4.938l2.703 2.152L752 356v2l4 2v2h2c3.666 4.371 3.317 8.603 3 14h-1l.063-3.375c-1.286-9.865-12.436-16.84-19.754-22.691L738 348v-1Z" fill="#CFCFE3" data-index="47" style="visibility: visible; fill: rgb(100, 92, 139); opacity: 1;"/>
    <path d="M485 544c.657 8.05-1.77 15.357-4 23l-2-2c.181-2.767.464-5.392.875-8.125l.316-2.285c.26-1.865.533-3.728.809-5.59l-2-1c3.75-4 3.75-4 6-4Z" fill="#B1ACDB" data-index="48" style="opacity: 1; visibility: visible; fill: rgb(100, 92, 139);"/>
    <path d="M652 372h10l1 4a205.189 205.189 0 0 1-3.75 2.063l-2.11 1.16c-2.501.908-3.673.66-6.14-.223 1.375-1.5 1.375-1.5 3-3h2v-2l-4-2Z" fill="#9C9ED2" data-index="49"/>
    <path d="M546 520h5c-4.084 5.616-9.24 10.16-15 14l-1-2a306.48 306.48 0 0 1 2.813-4l1.582-2.25L541 524h3v-2h2v-2Z" fill="#4C457B" data-index="50" style="opacity: 1; visibility: visible; fill: rgb(100, 92, 139);"/>
    <path d="m498 252 2 1-4 3 2-4Zm-3 4c0 3.633-1.08 4.971-3 8a174.184 174.184 0 0 0-2 4h-2l-1 3-3 1c-1-3-1-3-.11-4.79l1.36-1.835 1.328-1.852C488 262 488 262 491 261a95.29 95.29 0 0 0 4-5Z" fill="#AEB2D0" data-index="51" style="visibility: visible; fill: rgb(100, 92, 139); stroke: rgb(100, 92, 139); opacity: 1;"/>
    <path d="m697 588 5 1v2c-7.975 1.33-15.942 1.088-24 1l1-3c2.062-.027 4.125-.046 6.188-.063l3.48-.035c2.925.086 5.495.42 8.332 1.098v-2Z" fill="#CDBFF1" data-index="52" style="opacity: 1; visibility: visible; fill: rgb(237, 228, 252);"/>
    <path d="m611 441 1 3-2.438 2.313c-2.73 2.481-2.73 2.481-3.562 5.687h-2v3l2 1-5-1c-.058-2.84-.049-4.413 1-7 2.76-2.697 5.79-4.867 9-7Z" fill="#716794" data-index="53" style="visibility: visible; fill: rgb(165, 160, 206); opacity: 1;"/>
    <path d="m741 430 1 2c-2.99 6.11-7.856 15.928-14 19l1-3.375c1.089-3.32 1.089-3.32 1-5.625 1.875-2.125 1.875-2.125 4-4h2v-5l1 2h2l2-5Z" fill="#918EAD" data-index="54" style="visibility: visible; opacity: 1; fill: rgb(100, 92, 139);"/>
    <path d="M517 719c7.195-.211 14.02.392 21.125 1.5l2.898.434c2.327.349 4.652.704 6.977 1.066-3.845 2.12-6.586 2.31-11 2l-5-2h-3.313c-4.271 0-7.588-.85-11.687-2v-1Z" fill="#796FA2" data-index="55" style="visibility: visible; opacity: 1; fill: rgb(237, 228, 252); stroke: rgb(237, 228, 252);"/>
    <path d="M444 655c4.974 1.272 7.673 3.086 11 7v2h3l2 4h2l-1 3c-3.833-1.506-5.504-3.803-8-7l-2.25-1.688L449 661v-2l-1.938-.875C445 657 445 657 444 655Zm18 12 2 1Z" fill="#BAB8CD" data-index="56" style="visibility: visible; fill: rgb(246, 243, 252); stroke: rgb(246, 243, 252); opacity: 1;"/>
    <path d="M427 600h3c.197 2.666.383 5.333.563 8l.17 2.254c.33 5.076.039 9.716-.733 14.746-2-2-2-2-2.227-4.155.01-.87.02-1.738.032-2.634l.02-2.852.05-2.984.027-3.008c.024-2.456.057-4.911.098-7.367l-2-1 1-1Z" fill="#B4B1C7" data-index="57" style="visibility: visible; fill: rgb(246, 243, 252); opacity: 1;"/>
    <path d="M531 229c2.175 1.01 4.036 2.028 5.938 3.5 1.995 1.599 1.995 1.599 4.39 2.336 3.073 1.339 5.03 3.018 7.485 5.289l2.394 2.195L553 244l-1 2-1.75-2c-2.247-2.443-2.247-2.443-6.25-2v-2h-2l-2-3-3-1c-1.5-1.375-1.5-1.375-3-3l-1.688-1.625C531 230 531 230 531 229Z" fill="#B0AECD" data-index="58" style="visibility: visible; fill: rgb(100, 92, 139); opacity: 1;"/>
    <path d="M510 386h1v20c-2.643-2.643-3.72-5.729-5.125-9.125l-.84-1.996c-.683-1.625-1.36-3.252-2.035-4.879l3 1v2h2v3h2v-10Z" fill="#C1C1E5" data-index="59" style="opacity: 1; visibility: visible; fill: rgb(165, 160, 206);"/>
    <path d="M713 333c5.028.56 8.783 2.93 13.063 5.438 1.407.811 2.814 1.623 4.222 2.433l1.871 1.092c1.919 1.079 3.868 2.068 5.844 3.037l-1 2a8103.593 8103.593 0 0 1-9.188-4.813l-2.619-1.369c-9.012-4.73-9.012-4.73-12.193-6.818v-1Z" fill="#BFBFD5" data-index="60" style="visibility: visible; fill: rgb(100, 92, 139); opacity: 1; stroke: rgb(100, 92, 139);"/>
    <path d="M533 399h1v19h-11l1-10 2 1v7l6-1 1-16Z" fill="#6B6190" data-index="61" style="visibility: visible; opacity: 1; fill: rgb(165, 160, 206); stroke: rgb(165, 160, 206);"/>
    <path d="M497 372h1l.297 1.758c1.03 5.38 2.48 8.838 5.703 13.242v2c-3.837-1.494-5.462-3.636-7.75-7l-1.86-2.688C493 377 493 377 493 375l3-1 1-2Z" fill="#EAE9F9" data-index="62" style="opacity: 1; visibility: visible; fill: rgb(237, 228, 252);"/>
    <path d="m665 556 2.313.5c2.723.591 2.723.591 5.687.5 1.46 2.647 2 3.894 2 7-3.012-.644-5.517-1.65-8.25-3.063l-2.14-1.097L663 559l2-3Z" fill="#83729F" data-index="63" style="opacity: 1; visibility: visible; fill: rgb(165, 160, 206);"/>
    <path d="M357 384v6c-1.688.75-1.688.75-4 1-2.75-1.813-2.75-1.813-5-4v-2c2.957-1.478 5.742-1.06 9-1Z" fill="#776E8B" data-index="64" style="opacity: 1; visibility: visible; fill: rgb(165, 160, 206);"/>
    <path d="m420 701 1.625.875c2.728 1.292 5.508 2.19 8.375 3.125 2 1 2 1 2.875 3.438.896 2.698.896 2.698 3.25 3.875L438 713l-3 1a62.02 62.02 0 0 1-6-4.188l-1.617-1.212c-2.951-2.265-5.327-4.495-7.383-7.6Z" fill="#B3AFCD" data-index="65" style="visibility: visible; opacity: 1; fill: rgb(237, 228, 252); stroke: rgb(237, 228, 252);"/>
    <path d="m610 405 2 1-1.5 1.25c-1.934 1.872-1.934 1.872-1.5 5.75-6.625 3-6.625 3-10 3 .366-2.644.65-3.722 2.777-5.414l2.16-1.211c2.387-1.36 4.106-2.418 6.063-4.375Z" fill="#EDEAFA" data-index="66" style="opacity: 1; visibility: visible; fill: rgb(165, 160, 206);"/>
    <path d="M549 384h2v10l2 1-4 10h-1l1-21Z" fill="#9694CC" data-index="67" style="opacity: 1; visibility: visible; fill: rgb(165, 160, 206);"/>
    <path d="M314 351h2l-2 5h-2l2-5Zm-4 6 1 2c-3.75 3-3.75 3-6 3l-1 3h-2l-1 3-3 1c1.36-4.527 3.208-6.251 7.125-8.813l2.758-1.832L310 357Z" fill="#9690B0" data-index="68" style="visibility: visible; fill: rgb(100, 92, 139); stroke: rgb(100, 92, 139); opacity: 1;"/>
    <path d="m398 678 1.813 1.5c2.157 1.783 2.157 1.783 5.187 1.5 2.658 3.463 4.55 6.89 6 11-3.404-1.135-4.243-2.172-6.5-4.875-2.503-2.979-2.503-2.979-5.219-5.758C398 680 398 680 398 678Z" fill="#A29BBE" data-index="69" style="opacity: 1; visibility: visible; fill: rgb(237, 228, 252); stroke: rgb(237, 228, 252);"/>
    <path d="m587 513 1 3c-3.768 3.882-7.628 7.795-12 11h-2c1.346-4.038 3.653-5.473 7-8h2l.875-1.875C585 515 585 515 587 513Z" fill="#524975" data-index="70" style="opacity: 1; visibility: visible; fill: rgb(100, 92, 139);"/>
    <path d="M428 404c4.96.616 8.937 2.798 13.313 5.063l2.244 1.142c1.817.926 3.63 1.86 5.443 2.795l-1 2-1.645-.875-2.168-1.125-2.144-1.125c-2.132-1.072-2.132-1.072-5.043-.875v-2l-2.813-.813c-2.95-1.098-4.243-1.811-6.187-4.187Z" fill="#6E6790" data-index="71" style="visibility: visible; opacity: 1; fill: rgb(165, 160, 206);"/>
    <path d="m602 402 3 2-1.438 1.375c-1.652 1.558-1.652 1.558-2.562 3.625l6-1c-1.974 2.523-2.967 2.993-6.188 3.688L598 412l-1-3c.996-1.824.996-1.824 2.438-3.688l1.433-1.886L602 402Z" fill="#ABA5CA" data-index="72" style="opacity: 1; visibility: visible; fill: rgb(165, 160, 206);"/>
    <path d="M715 460h3c-.473 4.257-2.81 6.33-6 9h-4c1.235-3.706 3.197-5.337 6-8l1-1Z" fill="#7E7D97" data-index="73" style="visibility: visible; fill: rgb(100, 92, 139); stroke: rgb(100, 92, 139); opacity: 1;"/>
    <path d="M591 423v3l-1.938.75c-2.25 1.066-2.25 1.066-2.812 3.375L586 432h-2v7h-2c-.864-5.619 1.368-8.683 4.395-13.145C588 424 588 424 591 423Z" fill="#918AB8" data-index="74" style="opacity: 1; visibility: visible; fill: rgb(165, 160, 206);"/>
    <path d="m606 413 2 1c-3.722 5.775-7.14 7.031-13.77 8.555L592 423c2.805-2.994 5.612-5.2 9.125-7.313l2.633-1.613L606 413Z" fill="#9B94BE" data-index="75" style="opacity: 1; visibility: visible; fill: rgb(165, 160, 206);"/>
    <path d="M344.375 333.313 346 334h-2l-1 3-2.375.188c-4.26.954-7.623 2.705-11.453 4.753C327 343 327 343 325 343v-2l2.195-.988 2.93-1.325 3.043-1.37c2.126-.99 4.21-2.07 6.27-3.192C342 333 342 333 344.375 333.312Z" fill="#CCCBDA" data-index="76" style="visibility: visible; fill: rgb(100, 92, 139); stroke: rgb(100, 92, 139); opacity: 1;"/>
    <path d="M439 618c3.801 1.732 5.203 3.149 7 7 .688 3.813.688 3.813 1 7-4.638-3.644-6.074-8.63-8-14Z" fill="#AAA8CA" data-index="77" style="opacity: 1; visibility: visible; fill: rgb(246, 243, 252); stroke: rgb(246, 243, 252);"/>
    <path d="M330.188 356.375 332 357c-4.885 3.864-9.754 7.637-15 11l-1-2 1-2 4-1 1-2h2l1-3c3-2 3-2 5.188-1.625Z" fill="#8A84AE" data-index="78" style="opacity: 1; visibility: visible; fill: rgb(100, 92, 139); stroke: rgb(100, 92, 139);"/>
    <path d="M516 441c1.043 3.128.957 5.6.902 8.86.15 3.265 1.067 6.047 2.098 9.14-3.473-2.315-3.91-3.061-5-7-.256-3.02-.402-5.99 0-9l2-2Z" fill="#4B476E" data-index="79" style="opacity: 1; visibility: visible; fill: rgb(100, 92, 139);"/>
    <path d="M750 405c1.312 3.936.08 6.352-1.313 10.063l-.685 1.931c-1.044 2.854-1.829 4.833-4.002 7.006-.207-3.853.375-6.52 1.875-10.063l1.055-2.535c.966-2.168 1.987-4.29 3.07-6.402Z" fill="#5D5A77" data-index="80" style="opacity: 1;"/>
    <path d="m370 490 2 4h-3l-1.188 2.813c-1.94 3.413-3.342 4.499-6.812 6.187 1.52-5.405 5.274-8.985 9-13Z" fill="#9796B0" data-index="81" style="visibility: visible; fill: rgb(100, 92, 139); stroke: rgb(100, 92, 139); opacity: 1;"/>
    <path d="M611.938 488.813C615 489 615 489 617 491h-7l.07 1.898.055 2.477.07 2.46C610 500 610 500 608 502c-.027-1.98-.046-3.958-.063-5.938l-.035-3.34c.136-3.787.228-3.666 4.035-3.91Z" fill="#574C7A" data-index="82" style="opacity: 1; visibility: visible; fill: rgb(100, 92, 139);"/>
    <path d="m619 387-2 7-2.25.438c-2.27.464-4.505.991-6.75 1.562a591.616 591.616 0 0 1 2.813-3.375l1.582-1.898c2-2.152 3.555-3.727 6.605-3.727Zm-5 4 1 2 1-2h-2Z" fill="#7F7C9C" data-index="83" style="visibility: visible; fill: rgb(165, 160, 206); opacity: 1;"/>
    <path d="m314 368 2 1-3 2 .438 1.828c.185.8.37 1.599.562 2.422l.563 2.39C315 380 315 380 315 384h-3l-1-14 3-2Z" fill="#7F7A9A" data-index="84" style="visibility: visible; fill: rgb(100, 92, 139); stroke: rgb(100, 92, 139); opacity: 1;"/>
    <path d="M563 370h6a1099.569 1099.569 0 0 1-3.375 5.438l-1.898 3.058C562 381 562 381 560 382l3-12Z" fill="#EBE7F8" data-index="85" style="opacity: 1;"/>
    <path d="M567 262c4.58 1.527 6.294 5.153 9 9l1.313 1.758c1.125 1.555 1.125 1.555 2.687 4.242l-1 3-1.355-1.977c-4.084-5.92-4.084-5.92-8.582-11.523C567 264 567 264 567 262Z" fill="#BBBDD9" data-index="86" style="visibility: visible; fill: rgb(100, 92, 139); stroke: rgb(100, 92, 139); opacity: 1;"/>
    <path d="M559 589c1.245 2.49.777 3.41 0 6l-4 1c1.074-2.915 1.778-4.778 4-7Zm-6 8c0 3 0 3-2.5 5.688L548 605l-1-3 6-5Z" fill="#554A7A" data-index="87" style="opacity: 1; visibility: visible; fill: rgb(100, 92, 139);"/>
    <path d="m646 700-1 3c-2.063.688-2.063.688-4 1v2l-6 2 2-5h3v-2c2-1 2-1 6-1Z" fill="#A39EBD" data-index="88" style="visibility: visible; fill: rgb(246, 243, 252); opacity: 1; stroke: rgb(246, 243, 252);"/>
    <path d="m641 679 1 2a197.599 197.599 0 0 1-3 5l-.438 2.188C638 690 638 690 635.938 691.25L634 692v-5h2l.813-1.75c1.204-2.283 2.595-4.224 4.187-6.25Z" fill="#A7A6C1" data-index="89" style="visibility: visible; fill: rgb(246, 243, 252); opacity: 1; stroke: rgb(246, 243, 252);"/>
    <path d="M298 373c2.622 2.622 2.894 4.783 3.75 8.375l.86 3.46c.405 3.289.217 4.477-1.61 7.165v-5h-2l-1-14Z" fill="#A2A1B8" data-index="90" style="visibility: visible; fill: rgb(100, 92, 139); stroke: rgb(100, 92, 139); opacity: 1;"/>
    <path d="M462 415c2.063 2.25 2.063 2.25 4 5l-1 4-7-6 4-3Z" fill="#DDD8F5" data-index="91" style="opacity: 1; visibility: visible; fill: rgb(165, 160, 206);"/>
    <path d="M593 320h1c1.034 8.013 1.105 15.93 1 24-2-1-2-1-2.688-3l-.312-2 1-1c.086-1.343.107-2.69.098-4.035l-.01-2.451-.025-2.577-.014-2.587c-.012-2.117-.03-4.233-.049-6.35Z" fill="#4F4D72" data-index="92" style="visibility: visible; fill: rgb(100, 92, 139); stroke: rgb(100, 92, 139); opacity: 1;"/>
    <path d="M395 626h1l.332 2.23c.855 5.263 1.633 9.29 4.668 13.77l-1 2c-2.446-1.65-3.576-2.471-5-5-.449-4.363-.288-8.63 0-13Z" fill="#AFABCA" data-index="93" style="visibility: visible; opacity: 1; fill: rgb(237, 228, 252); stroke: rgb(237, 228, 252);"/>
    <path d="M494 584h2a407.78 407.78 0 0 1 2.563 4.813l1.44 2.707C501 594 501 594 500 597c-3.81-2.54-4.461-4.75-6-9v-4Z" fill="#4F4476" data-index="94" style="opacity: 1; visibility: visible; fill: rgb(100, 92, 139);"/>
    <path d="M664.875 489.625 668 490c1.563 2.188 1.563 2.188 3 5a140.075 140.075 0 0 0 5 5l-1 2-2.047-2.152-2.703-2.786-2.672-2.777c-2.38-2.11-3.488-2.946-6.578-3.285 1-1 1-1 3.875-1.375Z" fill="#605581" data-index="95" style="opacity: 1; visibility: visible; fill: rgb(100, 92, 139);"/>
    <path d="M668 425c1.958-.054 3.916-.093 5.875-.125l3.305-.07C680 425 680 425 682 427l-6 4-1-2 1-3h-8v-1Z" fill="#948EBC" data-index="96" style="visibility: visible; fill: rgb(165, 160, 206); opacity: 1;"/>
    <path d="M573 544c3 3.75 3 3.75 3 6h-2l-1 3-2-1c-.625-3.063-.625-3.063-1-6l3-2Z" fill="#C0B9E3" data-index="97" style="opacity: 1; visibility: visible; fill: rgb(100, 92, 139);"/>
    <path d="M450 407h2c3 3.462 3 3.462 3 6h2v3c-4.75-.75-4.75-.75-7-3l1-3-1-3Z" fill="#DDDBF6" data-index="98" style="opacity: 1; visibility: visible; fill: rgb(165, 160, 206);"/>
    <path d="M396 372h7v3h-3v2l-4-1v-4Z" fill="#8B879F" data-index="99" style="opacity: 1; visibility: visible; fill: rgb(165, 160, 206);"/>
    <path d="m501 349 2 1-1 2-4 1v9c-2-2-2-2-2.25-5.438C496 353 496 353 498 350l3-1Z" fill="#9C9BC1" data-index="100" style="opacity: 1;"/>
    <path d="M684 340c1.75-.054 3.5-.093 5.25-.125l2.953-.07c4.707.328 6.463 1.86 9.797 5.195l-18-4v-1Z" fill="#817BA1" data-index="101" style="visibility: visible; fill: rgb(246, 243, 252); opacity: 1;"/>
    <path d="m635 704 2 1c-2.99 3.335-5.895 5.215-10 7h-2v-2l2.875-1.375c3.128-1.427 3.128-1.427 5.125-3.625l2-1Z" fill="#675D87" data-index="102" style="visibility: visible; opacity: 1; fill: rgb(246, 243, 252);"/>
    <path d="M476 665c4.826 3.154 9.576 6.29 14 10l-1 2c-3.998-2.17-6.836-4.753-10-8l-3-2v-2Z" fill="#D1D1D6" data-index="103" style="opacity: 1; visibility: visible; fill: rgb(246, 243, 252); stroke: rgb(246, 243, 252);"/>
    <path d="M354 550h1c-.113 2.647-.24 5.292-.375 7.938l-.094 2.287c-.104 1.93-.31 3.854-.531 5.775l-2 1a481.542 481.542 0 0 1-.125-5.688l-.07-3.199c.196-3.136.864-5.29 2.195-8.113Z" fill="#564E74" data-index="104" style="opacity: 1; visibility: visible; fill: rgb(237, 228, 252);"/>
    <path d="M362 524h2c-.628 3.95-1.865 7.199-3.563 10.813l-1.378 2.957L358 540c-1.16-3.479-.775-4.342.438-7.688l.87-2.449L360 528h2l-1-3 1-1Z" fill="#5C537E" data-index="105" style="opacity: 1; visibility: visible; fill: rgb(237, 228, 252);"/>
    <path d="M394 608v6l-1.563-1.5c-3.276-2.016-5.657-1.78-9.437-1.5l-2 1-1-3c1.958-.168 3.917-.334 5.875-.5l3.305-.281c1.603-.125 3.212-.219 4.82-.219Z" fill="#706896" data-index="106" style="opacity: 1; visibility: visible; fill: rgb(237, 228, 252); stroke: rgb(237, 228, 252);"/>
    <path d="m584 537 2 1c-2.627 2.92-5.715 4.878-9 7l-3 2c.345-2.884.783-3.82 3.066-5.703l2.496-1.547 2.504-1.578L584 537Z" fill="#DDD5F6" data-index="107" style="opacity: 1; visibility: visible; fill: rgb(237, 228, 252);"/>
    <path d="M531.5 432.125c3.5.875 3.5.875 5.5 2.75 1 2.125 1 2.125 0 5.125-1.02-1.207-1.02-1.207-2.063-2.438-3.422-2.985-5.48-3.3-9.937-3.562 3-2 3-2 6.5-1.875Z" fill="#706899" data-index="108" style="opacity: 1; visibility: visible; fill: rgb(100, 92, 139);"/>
    <path d="M703 579h2c.082 1.416.14 2.833.188 4.25l.105 2.39C705 588 705 588 702 592l1-13Z" fill="#42356B" data-index="109" style="opacity: 1; stroke-width: 2px; stroke: rgb(100, 92, 139); visibility: visible; fill: rgb(100, 92, 139);"/>
    <path d="m607 449 2 1v2l3 1c-1.75 1.563-1.75 1.563-4 3-2.25-.313-2.25-.313-4-1v-3h2l1-3Z" fill="#7E70AA" data-index="110" style="visibility: visible; fill: rgb(165, 160, 206); opacity: 1;"/>
    <path d="M424 379c5.526 1.192 8.178 2.6 12 7l-5-1v-2l-2.375-.438C426 382 426 382 424 381v-2Z" fill="#8983A7" data-index="111" style="opacity: 1; visibility: visible; fill: rgb(165, 160, 206);"/>
    <path d="M506 257h2c-.155 2.71-.482 4.466-2.402 6.445-1.496 1.232-3.044 2.398-4.598 3.555l-1-2 1.875-2.313c2.181-2.683 2.181-2.683 4.125-5.687Z" fill="#8988B8" data-index="112" style="visibility: visible; fill: rgb(100, 92, 139); stroke: rgb(100, 92, 139); opacity: 1;"/>
    <path d="M374 644c2.883 2.786 5.19 5.38 7 9l-2 2c-3.291-3.61-4.547-6.126-5-11Z" fill="#A7A4BF" data-index="113" style="visibility: visible; fill: rgb(237, 228, 252); stroke: rgb(237, 228, 252); opacity: 1;"/>
    <path d="M393 617c2.351 3.527 2.214 5.029 2.125 9.188l-.055 3.292L395 632h-1a348.35 348.35 0 0 1-1.063-4.688l-.597-2.636c-.36-2.836-.05-4.924.66-7.676Z" fill="#7E7AA2" data-index="114" style="visibility: visible; opacity: 1; fill: rgb(237, 228, 252); stroke: rgb(237, 228, 252);"/>
    <path d="M505 488h1l2 13-4-1a559.991 559.991 0 0 1-.063-4.313l-.035-2.425C504 491 504 491 505 488Z" fill="#4D476B" data-index="115" style="opacity: 1; visibility: visible; fill: rgb(100, 92, 139);"/>
    <path d="m566 374 1 4-3 1-1 5-3-1 6-9Z" fill="#5D567B" data-index="116" style="opacity: 1; visibility: visible; fill: rgb(100, 92, 139);"/>
    <path d="M642 643c5.717-.457 8.486.477 13 4l-1 2-3-2-3-.438c-3.139-.588-4.078-1.106-6-3.562Z" fill="#A4A2BD" data-index="117" style="opacity: 1; visibility: visible; fill: rgb(246, 243, 252); stroke: rgb(246, 243, 252);"/>
    <path d="M462 500c3.326 1.663 3.8 4.63 5 8-.313 2.438-.313 2.438-1 4-3.19-4.186-4.504-6.706-4-12Z" fill="#574D7D" data-index="118" style="opacity: 1; visibility: visible; fill: rgb(100, 92, 139);"/>
    <path d="m730 444 1 2-6 8-1-4 4-2v-3l2-1Z" fill="#4E496C" data-index="119" style="visibility: visible; opacity: 1; fill: rgb(100, 92, 139);"/>
    <path d="M530 226c4.81 2.547 8.324 4.99 12 9-3.384-.617-5.52-1.87-8.25-3.938l-2.14-1.59c-.532-.485-1.063-.971-1.61-1.472v-2Z" fill="#CED0E7" data-index="120" style="visibility: visible; fill: rgb(100, 92, 139); stroke: rgb(100, 92, 139); opacity: 1;"/>
    <path d="M476 729c5.673-.293 8.99-.006 14 3-3.547 1.251-5.723.723-9.25-.438l-2.703-.87L476 730v-1Z" fill="#BDBBD1" data-index="121" style="opacity: 1; visibility: visible; fill: rgb(237, 228, 252); stroke: rgb(237, 228, 252);"/>
    <path d="m549 596 4 2-6 5-2-3h3l1-4Z" fill="#D7CBF5" data-index="122" style="opacity: 1; visibility: visible; fill: rgb(237, 228, 252);"/>
    <path d="M449 444c2.846 1.276 5.18 2.415 7 5-.313 2.688-.313 2.688-1 5-2-2-2-2-3-4.563-.749-2.585-.749-2.585-3-3.437v-2Z" fill="#6F6792" data-index="123" style="opacity: 1; visibility: visible; fill: rgb(165, 160, 206);"/>
    <path d="M646 440c-3.323 3.938-3.323 3.938-6.75 4.25L637 444l-1-3c1.29-.363 2.582-.715 3.875-1.063l2.18-.597C644 439 644 439 646 440Z" fill="#ECE1F9" data-index="124" style="opacity: 1; visibility: visible; fill: rgb(165, 160, 206);"/>
    <path d="M536 693c3.25.125 3.25.125 7 1 2.438 3.063 2.438 3.063 4 6-4.108-1.45-7.469-3.454-11-6v-1Z" fill="#ACA9CA" data-index="125" style="visibility: visible; fill: rgb(246, 243, 252); opacity: 1;"/>
    <path d="m634 689 2 1c-2.313 2.5-2.313 2.5-5 5h-3c0-2 0-2 1.313-3.563C631 690 631 690 634 689Z" fill="#736D91" data-index="126" style="visibility: visible; fill: rgb(246, 243, 252); stroke: rgb(246, 243, 252); opacity: 1;"/>
    <path d="M655 651c2.32 2.847 3.916 5.476 5 9l-1 3c-4.571-7.286-4.571-7.286-4-12Z" fill="#77709E" data-index="127" style="opacity: 1; visibility: visible; fill: rgb(246, 243, 252); stroke: rgb(246, 243, 252);"/>
    <path d="m432 634 1 3c2 1.209 2 1.209 4 2v7c-2.452-2.452-3.607-4.833-5-8v-4Z" fill="#B0ADCA" data-index="128" style="visibility: visible; fill: rgb(246, 243, 252); opacity: 1; stroke: rgb(246, 243, 252);"/>
    <path d="M632 586c1.648.281 3.293.575 4.938.875l2.777.492L642 588l1 2c-3.41 1.136-4.003.867-7.188-.438l-2.167-.87L632 588v-2Z" fill="#564783" data-index="129" style="opacity: 1; visibility: visible; fill: rgb(100, 92, 139);"/>
    <path d="M680 487c3 0 3 0 5.688 2.5L688 492l-7-1-1-4Z" fill="#817E99" data-index="130" style="opacity: 1; visibility: visible; fill: rgb(100, 92, 139);"/>
    <path d="M325 443c5.802 5.645 5.802 5.645 8 9v2c-3.279-1.093-3.781-1.662-5.688-4.375l-1.324-1.836C325 446 325 446 325 443Z" fill="#C6C5D8" data-index="131" style="opacity: 1; visibility: visible; fill: rgb(100, 92, 139); stroke: rgb(100, 92, 139);"/>
    <path d="m741 430 1 2c-3.412 6.706-3.412 6.706-6 8v-7l1 2h2l2-5Z" fill="#A9A6C0" data-index="132" style="visibility: visible; opacity: 1; fill: rgb(100, 92, 139);"/>
    <path d="M425 432c6.625.75 6.625.75 10 3l-1 2c-3.775-1.09-6.47-1.908-9-5Z" fill="#8277A4" data-index="133" style="opacity: 1; visibility: visible; fill: rgb(165, 160, 206);"/>
    <path d="M647 428c-1 2-1 2-2.625 2.625-3.141.496-6.201.436-9.375.375 3.518-3.518 7.193-3.11 12-3Z" fill="#827AA2" data-index="134" style="opacity: 1; visibility: visible; fill: rgb(165, 160, 206);"/>
    <path d="M430.36 328.46c.788.303 1.577.604 2.39.915l2.422.898L437 331l-1 2-12-3c4-2 4-2 6.36-1.54Z" fill="#AAA9CB" data-index="135" style="visibility: visible; fill: rgb(100, 92, 139); stroke: rgb(100, 92, 139); opacity: 1;"/>
    <path d="m489 264 3 1-2 3h-2l-1 3-3 1-1-3 1.875-.813c2.425-1.143 2.425-1.143 4.125-4.187Z" fill="#918DB9" data-index="136" style="visibility: visible; fill: rgb(100, 92, 139); stroke: rgb(100, 92, 139); opacity: 1;"/>
    <path d="M408 686c2.993 1.098 3.846 1.677 5.25 4.625L414 693h2v2l-3-1v-2l-1.938-.75C409 690 409 690 408.25 687.875L408 686Z" fill="#7A6F9D" data-index="137" style="visibility: visible; opacity: 1; fill: rgb(237, 228, 252); stroke: rgb(237, 228, 252);"/>
    <path d="M442 400c4.75.875 4.75.875 7 2 .625 2.563.625 2.563 1 5a962.085 962.085 0 0 1-4-2.938l-2.25-1.652L442 401v-1Z" fill="#AEA8D3" data-index="138" style="opacity: 1; visibility: visible; fill: rgb(165, 160, 206);"/>
    <path d="M738 347c3.871.574 6.082 2.487 9 5l-1 3a1154.753 1154.753 0 0 1-4-3.438l-2.25-1.933L738 348v-1Z" fill="#C4C3DF" data-index="139" style="visibility: visible; fill: rgb(100, 92, 139); opacity: 1;"/>
    <path d="M533 688h3v5a101.168 101.168 0 0 1-6-2l-1-2 4 1v-2Z" fill="#9D9CBE" data-index="140" style="opacity: 1; visibility: visible; fill: rgb(246, 243, 252); stroke: rgb(246, 243, 252);"/>
    <path d="M437 646h3v3l4 1-1 4a90.488 90.488 0 0 1-4-4v-2h-2v-2Z" fill="#AFACC4" data-index="141" style="opacity: 1; visibility: visible; fill: rgb(246, 243, 252); stroke: rgb(246, 243, 252);"/>
    <path d="M657 588h2v2l6-1 1 3h-8l-1-4Z" fill="#C1B4E8" data-index="142" style="opacity: 1; visibility: visible; fill: rgb(237, 228, 252);"/>
    <path d="M673 559c2 2 2 2 2 5-3.356-.6-5.378-1.846-8-4 2.875-.625 2.875-.625 6-1Z" fill="#A898C0" data-index="143" style="opacity: 1;"/>
    <path d="m521 537 3 1 1 13c-2.097-3.146-2.52-5.015-3.125-8.688l-.508-3.011L521 537Z" fill="#7A73A3" data-index="144" style="opacity: 1; visibility: visible; fill: rgb(100, 92, 139);"/>
    <path d="M660 492c-2.398 2.398-3.333 2.343-6.625 2.625l-2.477.227L649 495c2.106-4.211 6.883-3.078 11-3Z" fill="#5B5077" data-index="145" style="opacity: 1; visibility: visible; fill: rgb(100, 92, 139); stroke: rgb(100, 92, 139);"/>
    <path d="m596 410 4 3c-2.174 2.5-3.73 3.436-7 4 1.875-4.75 1.875-4.75 3-7Z" fill="#B8B2D6" data-index="146" style="opacity: 1; stroke-width: 2px; stroke: rgb(165, 160, 206); visibility: visible; fill: rgb(165, 160, 206);"/>
    <path d="m323 343 2 1-9 7v-3c1.531-1.387 1.531-1.387 3.5-2.688l1.969-1.324L323 343Z" fill="#D4D4E6" data-index="147" style="visibility: visible; fill: rgb(100, 92, 139); stroke: rgb(100, 92, 139); opacity: 1;"/>
    <path d="M579 713c8.036-.402 8.036-.402 12 3a485.352 485.352 0 0 1-5.438-.375l-3.058-.21c-.826-.138-1.653-.274-2.504-.415l-1-2Z" fill="#777299" data-index="148" style="visibility: visible; opacity: 1; fill: rgb(246, 243, 252); stroke: rgb(246, 243, 252);"/>
    <path d="M642 680h1c.25 2.313.25 2.313 0 5-2 1.813-2 1.813-4 3l-1-3c1.875-2.688 1.875-2.688 4-5Z" fill="#6D638E" data-index="149" style="opacity: 1; visibility: visible; fill: rgb(246, 243, 252); stroke: rgb(246, 243, 252);"/>
    <path d="m499 670 8 2 1 4c-3.937-1.312-6.227-2.92-9-6Z" fill="#AAA7C7" data-index="150" style="opacity: 1; visibility: visible; fill: rgb(246, 243, 252); stroke: rgb(246, 243, 252);"/>
    <path d="M499 427h2c1.257 2.906 2 4.796 2 8l-3-1-1-7Z" fill="#ECE7F9" data-index="151"/>
    <path d="m598 413 1 3 2 1c-1 1-1 1-3.563 1.063L595 418l-1-2h3l1-3Zm-6 4 2 1Z" fill="#C8C4E8" data-index="152" style="visibility: visible; fill: rgb(165, 160, 206); opacity: 1;"/>
    <path d="m702 383-1 3-9-1v-1c3.435-.625 6.49-1 10-1Z" fill="#9490BD" data-index="153" style="visibility: visible; fill: rgb(165, 160, 206); stroke: rgb(165, 160, 206); opacity: 1;"/>
    <path d="m305 362-1 3h-2l-1 3-3 1c2.395-7 2.395-7 7-7Z" fill="#8B86A3" data-index="154" style="visibility: visible; fill: rgb(100, 92, 139); stroke: rgb(100, 92, 139); opacity: 1;"/>
    <path d="m488 283 1 2a100.644 100.644 0 0 1-3 6l-2-1v-5l4-2Z" fill="#7882AC" data-index="155" style="visibility: visible; fill: rgb(100, 92, 139); stroke: rgb(100, 92, 139); opacity: 1;"/>
    <path d="m562 704 7 5-2 1c-5.727-2.455-5.727-2.455-7-5l2-1Z" fill="#756E97" data-index="156" style="visibility: visible; fill: rgb(246, 243, 252); stroke: rgb(246, 243, 252); opacity: 1;"/>
    <path d="m465 529 1 2h2v2h2l1 3c-4.677-1.477-4.677-1.477-6.313-4.125L464 530l1-1Z" fill="#5B4D78" data-index="157" style="opacity: 1; visibility: visible; fill: rgb(100, 92, 139);"/>
    <path d="m431 476 2 3-11 1 1-3 8 1v-2Z" fill="#E0E1F8" data-index="158"/>
    <path d="M698 474h6c-1.398 2.796-3.263 3.598-6 5l-2-1 2-4Z" fill="#9C99B3" data-index="159" style="opacity: 1; visibility: visible; fill: rgb(100, 92, 139); stroke: rgb(100, 92, 139);"/>
    <path d="m710 448 2 1v2l-7 4c1.293-2.884 2.66-4.872 5-7Z" fill="#524972" data-index="160" style="opacity: 1; visibility: visible; fill: rgb(100, 92, 139);"/>
    <path d="m717 440 3 1c-4.75 4.875-4.75 4.875-7 6 .564-3.27 1.5-4.826 4-7Z" fill="#554D71" data-index="161" style="opacity: 1; visibility: visible; fill: rgb(100, 92, 139);"/>
    <path d="m602 411 2 1-1 2 2 1-6 1c.375-1.938.375-1.938 1-4l2-1Z" fill="#DFDBF4" data-index="162" style="visibility: visible; fill: rgb(165, 160, 206); opacity: 1;"/>
    <path d="m709 344 2 1 1 4-9-3v-1c1.207.03 1.207.03 2.438.063 2.496.233 2.496.233 3.562-1.063Z" fill="#7F779E" data-index="163" style="opacity: 1; visibility: visible; fill: rgb(100, 92, 139);"/>
    <path d="M731 344c2.02.602 4.021 1.273 6 2l1 2c-.938 2.125-.938 2.125-2 4v-4l-5-2v-2Z" fill="#736D96" data-index="164" style="visibility: visible; fill: rgb(100, 92, 139); opacity: 1;"/>
    <path d="M414 665c4.875 4.75 4.875 4.75 6 7-2.867-.573-3.861-.861-6-3v-4Z" fill="#A99FBE" data-index="165" style="visibility: visible; fill: rgb(237, 228, 252); opacity: 1;"/>
    <path d="m433 598 3 1-5 6c-.688-1.813-.688-1.813-1-4 1.438-1.75 1.438-1.75 3-3Z" fill="#746698" data-index="166" style="opacity: 1; visibility: visible; fill: rgb(246, 243, 252);"/>
    <path d="m401 588 9 1v1l-10 1 1-3Z" fill="#CDC1EC" data-index="167" style="opacity: 1; visibility: visible; fill: rgb(237, 228, 252);"/>
    <path d="M595 566c3.914 1.27 5.79 2.512 8 6-2.972-1.125-5.334-2.223-8-4v-2Z" fill="#594D80" data-index="168" style="opacity: 1; visibility: visible; fill: rgb(100, 92, 139);"/>
    <path d="M478 549h3v11h-1l-.586-6.055c-.278-2.172-.278-2.172-2.414-3.945l1-1Z" fill="#817DAD" data-index="169" style="opacity: 1; visibility: visible; fill: rgb(100, 92, 139);"/>
    <path d="M507 521c3.594 1.335 6.755 2.96 10 5l-2 2a962.085 962.085 0 0 1-4-2.938l-2.25-1.652L507 522v-1Z" fill="#5C5180" data-index="170" style="opacity: 1; visibility: visible; fill: rgb(100, 92, 139);"/>
    <path d="M410 397c5.75.75 5.75.75 8 3h-8v-3Z" fill="#797397" data-index="171" style="visibility: visible; opacity: 1; fill: rgb(165, 160, 206);"/>
    <path d="m619 387-2 7-3-1c.375-2.438.375-2.438 1-5 2-1 2-1 4-1Z" fill="#8581A7" data-index="172" style="opacity: 1; visibility: visible; fill: rgb(165, 160, 206);"/>
    <path d="M499 381c2.252 2.688 3.882 4.646 5 8-2.536-1.015-3.794-1.685-5.313-4l-.687-2 1-2Z" fill="#C9C8EB" data-index="173" style="opacity: 1; visibility: visible; fill: rgb(237, 228, 252);"/>
    <path d="m335 340-8 5-2-2c6.625-4.125 6.625-4.125 10-3Z" fill="#9691AF" data-index="174" style="visibility: visible; fill: rgb(100, 92, 139); stroke: rgb(100, 92, 139); opacity: 1;"/>
    <path d="m525 317 3 3c-1.152 2.468-2.048 4.048-4 6l1-9Z" fill="#8E87B1" data-index="175" style="opacity: 1; visibility: visible; fill: rgb(165, 160, 206);"/>
    <path d="M471 292c.688 1.688.688 1.688 1 4-1.438 2.75-1.438 2.75-3 5-1-3-1-3 .438-6.188L471 292Z" fill="#8984A1" data-index="176" style="visibility: visible; fill: rgb(100, 92, 139); stroke: rgb(100, 92, 139); opacity: 1;"/>
</svg>